Original title: Fa yeung nin wa
 
http://www.imdb.com/title/tt0118694/

Source: In.The.Mood.For.Love.2000.720p.BluRay.x264-CiNEFiLE Thanks!

Subs: Arabic, Brazilian, Dutch, English, Farsi-Persian, French, German, Greek, Indonesian, Italian, Portuguese, Spanish, Swedish, Vietnamese.

Sample and Screens included.

General
Complete name                            : In the Mood for Love 2000 720p BRRip x264 MP4 AAC-CC.mp4
Format                                   : MPEG-4
Format profile                           : Base Media
Codec ID                                 : isom
File size                                : 2.78 GiB
Duration                                 : 1h 38mn
Overall bit rate mode                    : Variable
Overall bit rate                         : 4 026 Kbps
Encoded date                             : UTC 2013-04-04 11:03:11
Tagged date                              : UTC 2013-04-04 11:03:11
Writing application                      : Yamb 2.1.0.0 

Video
ID                                       : 1
Format                                   : AVC
Format/Info                              : Advanced Video Codec
Format profile                           : High@L4.1
Format settings, CABAC                   : Yes
Format settings, ReFrames                : 5 frames
Codec ID                                 : avc1
Codec ID/Info                            : Advanced Video Coding
Duration                                 : 1h 38mn
Bit rate                                 : 3 678 Kbps
Maximum bit rate                         : 21.4 Mbps
Width                                    : 1 200 pixels
Height                                   : 720 pixels
Display aspect ratio                     : 1.667
Frame rate mode                          : Variable
Frame rate                               : 23.976 fps
Minimum frame rate                       : 19.048 fps
Maximum frame rate                       : 25.000 fps
Color space                              : YUV
Chroma subsampling                       : 4:2:0
Bit depth                                : 8 bits
Scan type                                : Progressive
Bits/(Pixel*Frame)                       : 0.178
Stream size                              : 2.51 GiB (90%)
Writing library                          : x264 core 112
Encoding settings                        : cabac=1 / ref=5 / deblock=1:0:0 / analyse=0x3:0x113 / me=hex / subme=7 / psy=1 / psy_rd=1.00:0.00 / mixed_ref=1 / me_range=16 / chroma_me=1 / trellis=1 / 8x8dct=1 / cqm=0 / deadzone=21,11 / fast_pskip=1 / chroma_qp_offset=-2 / threads=3 / sliced_threads=0 / nr=0 / decimate=1 / interlaced=0 / constrained_intra=0 / bframes=5 / b_pyramid=2 / b_adapt=2 / b_bias=0 / direct=1 / weightb=1 / open_gop=0 / weightp=2 / keyint=240 / keyint_min=23 / scenecut=40 / intra_refresh=0 / rc_lookahead=50 / rc=abr / mbtree=1 / bitrate=3678 / ratetol=1.0 / qcomp=0.60 / qpmin=3 / qpmax=51 / qpstep=4 / ip_ratio=1.40 / aq=1:1.00
Encoded date                             : UTC 2013-04-04 19:53:05
Tagged date                              : UTC 2013-04-04 11:06:47
Color primaries                          : BT.709
Transfer characteristics                 : BT.709
Matrix coefficients                      : BT.709

Audio
ID                                       : 2
Format                                   : AAC
Format/Info                              : Advanced Audio Codec
Format profile                           : LC
Codec ID                                 : 40
Duration                                 : 1h 38mn
Bit rate mode                            : Variable
Bit rate                                 : 384 Kbps
Maximum bit rate                         : 671 Kbps
Channel(s)                               : 6 channels
Channel positions                        : Front: L C R, Side: L R, LFE
Sampling rate                            : 48.0 KHz
Compression mode                         : Lossy
Delay relative to video                  : 83ms
Stream size                              : 271 MiB (10%)
Language                                 : Japanese
Encoded date                             : UTC 2013-04-04 11:05:57
Tagged date                              : UTC 2013-04-04 11:06:47

Enjoy...

Requested by DreamExtractor 

Coming soon: Tropa de Elite 2, Quiz Show, Candyman, Dial M for Murder and more..